<?xml version="1.0" standalone="no"?>
<!DOCTYPE svg PUBLIC "-//W3C//DTD SVG 20010904//EN"
 "http://www.w3.org/TR/2001/REC-SVG-20010904/DTD/svg10.dtd">
<svg version="1.0" xmlns="http://www.w3.org/2000/svg"
 width="1280.000000pt" height="640.000000pt" viewBox="0 0 1280.000000 640.000000"
 preserveAspectRatio="xMidYMid meet">
<metadata>
Created by potrace 1.15, written by Peter Selinger 2001-2017
</metadata>
<g transform="translate(0.000000,640.000000) scale(0.100000,-0.100000)"
fill="#000000" stroke="none">
<path d="M2650 6210 c0 -5 5 -10 10 -10 6 0 10 5 10 10 0 6 -4 10 -10 10 -5 0
-10 -4 -10 -10z"/>
<path d="M2658 6038 l-5 -153 -78 -183 -77 -183 1 -269 c2 -233 0 -270 -13
-270 -9 0 -16 -12 -18 -32 l-3 -33 -60 0 -60 0 -3 33 -3 32 -65 0 -64 0 0
-194 0 -195 -27 -3 c-22 -2 -29 -9 -31 -30 -3 -27 -5 -28 -68 -28 l-64 0 0 30
0 30 -65 0 -65 0 0 65 c0 63 1 65 25 65 24 0 25 2 25 75 0 67 -2 75 -19 75
-12 0 -21 -8 -23 -20 -2 -12 -7 -22 -13 -23 -14 -3 -19 391 -5 408 7 8 -6 48
-45 135 -46 103 -55 133 -55 181 0 32 5 61 11 64 6 4 52 9 102 11 100 4 224
20 192 24 -18 2 -17 3 5 11 16 5 -14 7 -87 5 -86 -2 -113 1 -117 11 -4 8 -23
13 -55 13 -30 0 -51 5 -54 13 -3 6 -6 -37 -6 -96 -1 -108 -1 -110 -51 -225
l-51 -117 1 -222 c0 -147 -3 -223 -10 -223 -5 0 -10 11 -10 25 0 20 -5 25 -25
25 -24 0 -25 -2 -25 -75 0 -73 1 -75 25 -75 l25 0 0 -461 0 -461 -32 6 c-18 4
-40 9 -48 10 -8 2 -48 9 -87 16 l-73 13 -1 46 -1 46 -10 -40 c-6 -22 -12 -41
-13 -43 -1 -1 -44 6 -96 17 -52 10 -111 22 -133 26 l-38 6 6 61 c5 41 4 58 -3
53 -6 -3 -11 -16 -11 -28 0 -12 -3 -33 -7 -45 -4 -18 -8 -20 -14 -10 -7 10 -9
9 -9 -4 0 -11 -7 -18 -17 -18 -42 2 -214 28 -220 34 -4 3 7 21 24 39 16 17 36
48 43 67 8 19 18 38 23 41 11 8 37 72 44 112 7 39 -16 35 -67 -10 -50 -45 -94
-114 -119 -190 -14 -43 -25 -59 -40 -61 -25 -4 -27 15 -11 98 11 57 4 103 -14
97 -18 -6 -59 -87 -71 -142 -9 -38 -16 -51 -32 -53 -17 -3 -22 5 -32 54 -6 32
-11 87 -11 124 0 118 -53 249 -134 333 -51 52 -76 60 -76 24 0 -27 24 -104 51
-164 10 -24 19 -47 19 -52 0 -5 18 -33 40 -62 22 -30 40 -59 40 -65 0 -6 10
-31 23 -55 23 -42 52 -138 44 -145 -1 -2 -40 -13 -85 -25 -81 -22 -83 -22 -98
-3 -15 19 -15 18 -11 -2 4 -20 -6 -24 -117 -54 -66 -18 -127 -35 -133 -38 -9
-3 -13 9 -14 39 -1 25 -3 33 -6 19 -9 -60 -14 -68 -44 -79 -18 -6 -43 -11 -55
-11 l-24 0 0 -1800 0 -1800 6400 0 6400 0 0 1723 c0 1565 -1 1725 -16 1745 -9
13 -20 35 -24 50 -6 19 -9 1 -10 -63 l-2 -90 -31 128 c-31 129 -50 170 -35 75
5 -29 10 -190 13 -358 l4 -305 -14 170 c-29 371 -73 737 -90 753 -4 4 -5 -90
-2 -208 5 -213 -3 -190 -19 53 -6 101 -24 135 -24 47 0 -31 -9 -73 -24 -108
-13 -31 -45 -115 -71 -187 -26 -71 -51 -134 -55 -138 -3 -4 -12 25 -19 65 -23
129 -30 110 -30 -77 0 -161 -3 -193 -28 -302 -15 -68 -30 -123 -33 -123 -3 0
-13 45 -23 100 -26 154 -70 360 -76 360 -3 0 -5 -98 -4 -217 2 -266 -10 -234
-27 72 -7 121 -17 224 -21 230 -5 5 -9 -18 -9 -53 0 -100 -16 -71 -23 41 -11
182 -40 462 -49 472 -4 5 -8 -119 -8 -275 -1 -397 -30 -845 -53 -804 -18 31
-14 573 6 738 16 139 17 184 3 139 -16 -53 -90 -405 -123 -585 -21 -115 -40
-208 -43 -208 -4 0 -15 69 -26 153 -16 126 -19 207 -17 472 1 205 -1 306 -7
280 -5 -22 -9 -55 -9 -73 -1 -18 -6 -31 -12 -30 -7 2 -18 -22 -26 -52 -7 -30
-18 -63 -23 -72 -5 -9 -17 -52 -26 -94 -8 -43 -26 -98 -38 -123 -13 -25 -45
-110 -72 -188 -26 -79 -51 -137 -55 -130 -4 6 -10 50 -13 97 -4 47 -13 137
-21 200 -15 112 -14 119 10 254 32 180 26 192 -21 43 l-18 -59 -12 39 c-11 37
-12 35 -13 -42 -1 -55 -10 -111 -29 -180 -16 -55 -39 -142 -52 -194 -13 -55
-26 -88 -30 -80 -4 8 -17 82 -30 164 -12 83 -26 154 -31 160 -5 5 -9 -64 -10
-165 0 -96 -7 -233 -14 -305 l-14 -130 3 275 c4 297 -1 313 -39 127 -10 -48
-20 -85 -22 -83 -3 3 -13 58 -22 123 -10 69 -22 117 -28 116 -45 -9 8 335 70
460 19 36 45 81 59 99 13 18 30 49 38 68 7 19 19 42 25 50 14 18 35 89 35 119
0 32 -17 26 -71 -28 -64 -63 -109 -160 -115 -244 -3 -34 -19 -134 -37 -222
-29 -145 -32 -156 -39 -120 -14 73 -11 217 5 265 18 52 32 207 22 239 -10 33
-22 25 -52 -31 -34 -68 -44 -199 -20 -274 33 -100 51 -344 29 -366 -5 -5 -19
41 -32 102 -13 60 -25 110 -27 110 -2 0 -2 -91 -1 -202 l2 -203 -46 -135 -47
-135 -1 340 c-2 461 -7 482 -48 185 -41 -297 -43 -312 -47 -308 -2 2 -9 85
-15 186 -13 184 -29 243 -31 110 0 -44 -3 -65 -8 -54 -10 26 -17 13 -31 -64
-15 -74 -32 -116 -23 -55 3 22 16 96 29 165 13 69 24 129 24 135 0 51 -91
-221 -150 -447 -18 -71 -36 -128 -40 -128 -4 0 -10 100 -13 223 -7 220 -32
590 -46 657 -4 20 -14 -111 -25 -325 -21 -415 -29 -512 -39 -475 -42 157 -56
257 -50 348 4 64 2 94 -4 87 -10 -10 -68 -271 -94 -420 -12 -70 -29 -109 -29
-67 0 12 -16 106 -36 209 l-36 188 17 253 c10 139 16 255 13 257 -2 2 -19 -72
-38 -165 -19 -94 -37 -170 -41 -170 -3 0 -12 46 -20 103 l-14 102 -6 -95 c-4
-52 -7 -165 -8 -250 0 -114 -8 -205 -28 -342 -15 -104 -30 -188 -33 -188 -8 0
-42 236 -47 325 -3 39 5 178 16 309 12 132 21 253 20 270 -1 28 -2 27 -14 -14
-29 -101 -7 31 31 190 9 36 22 72 29 80 8 8 23 37 35 64 11 27 33 64 49 82 16
18 34 50 41 71 7 21 17 44 23 51 28 35 61 172 41 172 -28 0 -104 -76 -147
-148 -38 -66 -67 -164 -67 -231 0 -31 -15 -128 -34 -216 -19 -88 -42 -207 -51
-265 -18 -106 -34 -159 -35 -111 0 13 -4 40 -10 60 -32 119 -69 295 -74 350
-9 103 -65 209 -145 275 -35 30 -46 34 -52 23 -8 -14 18 -103 37 -129 6 -7 17
-29 24 -48 7 -19 26 -48 41 -65 15 -16 35 -48 44 -70 10 -22 24 -47 31 -56 28
-31 86 -286 88 -381 0 -47 -2 -84 -6 -81 -5 2 -8 -7 -8 -20 0 -27 -8 -52 -79
-257 l-50 -145 -1 96 c-1 212 -14 550 -20 537 -12 -20 -108 -395 -121 -470
-15 -80 -29 -80 -29 0 0 31 -12 165 -26 297 -14 132 -28 299 -31 372 -4 106
-8 130 -19 126 -10 -4 -14 4 -14 28 0 19 -4 40 -8 46 -5 7 -8 -83 -8 -200 0
-151 -7 -265 -22 -397 -12 -102 -27 -231 -33 -288 -7 -56 -13 -101 -15 -100
-2 3 -34 455 -34 487 0 36 -16 -7 -21 -57 -5 -46 -6 -36 -8 51 0 59 -5 107
-10 107 -5 0 -17 -61 -26 -136 -19 -141 -28 -152 -40 -49 -11 103 -76 510 -82
515 -3 3 -2 -83 2 -191 7 -194 7 -200 -30 -450 -21 -140 -42 -258 -47 -264 -4
-5 -8 17 -8 50 0 89 -27 371 -51 525 -11 74 -23 152 -26 173 -10 68 -20 48
-26 -56 -3 -56 -13 -232 -22 -392 -19 -344 -20 -356 -41 -348 -13 5 -15 45
-12 319 2 172 0 310 -3 306 -16 -18 -119 -505 -119 -563 0 -16 -6 -20 -27 -17
l-28 3 -13 150 c-13 154 -9 231 22 463 7 50 10 92 6 92 -6 0 -77 -297 -117
-492 -9 -49 -20 -88 -24 -88 -7 0 -19 136 -19 213 0 86 -17 49 -27 -60 -9
-101 -10 -103 -11 -40 -1 38 -6 66 -11 63 -4 -3 -14 -55 -21 -116 -8 -61 -17
-113 -22 -116 -4 -3 -17 -3 -27 1 -17 5 -19 23 -26 218 -5 172 -4 240 10 355
17 142 16 206 -2 122 -5 -25 -14 -44 -20 -43 -6 1 -13 -28 -17 -70 -4 -40 -25
-177 -48 -304 -44 -251 -42 -246 -101 -224 -21 8 -26 21 -41 103 -9 51 -22
118 -28 148 -10 50 -12 53 -19 27 -4 -15 -11 -77 -14 -137 -8 -124 -5 -120
-90 -92 l-50 17 -3 79 c-3 71 2 93 47 236 31 95 58 164 71 175 11 10 20 24 20
32 0 7 19 34 42 59 41 44 63 79 114 182 49 99 12 102 -82 7 -60 -61 -100 -137
-115 -220 -12 -67 -89 -325 -101 -339 -4 -6 -8 33 -8 86 0 54 4 100 10 103 6
3 10 17 10 31 0 14 9 46 19 72 33 79 57 218 42 241 -12 19 -25 9 -56 -44 -30
-52 -59 -177 -50 -215 10 -38 24 -333 16 -347 -4 -7 -14 65 -24 160 -9 94 -24
219 -33 277 -9 58 -13 126 -10 152 3 26 1 76 -5 110 -10 66 -67 199 -99 233
-11 11 -28 30 -40 43 -28 31 -50 29 -50 -5 1 -33 21 -110 37 -138 6 -11 14
-36 18 -55 4 -19 22 -57 40 -85 18 -27 39 -68 46 -90 6 -22 18 -49 24 -60 14
-22 46 -216 44 -262 -2 -26 -2 -25 -9 7 -4 20 -8 -61 -9 -182 -1 -155 -4 -218
-12 -218 -7 0 -30 5 -52 12 l-39 12 5 80 c21 283 18 309 -19 141 -10 -44 -19
-73 -21 -65 -2 8 -14 92 -27 185 l-24 170 -1 -242 c-1 -134 -4 -243 -8 -243
-19 0 -169 54 -174 63 -4 5 -11 7 -16 4 -6 -4 -27 -2 -47 4 l-37 10 7 190 c4
104 5 189 2 189 -3 0 -18 -80 -33 -177 -15 -98 -29 -179 -30 -181 -7 -9 -192
35 -202 48 -11 13 -12 13 -13 0 0 -12 -11 -14 -55 -12 l-55 4 0 56 c0 85 -16
96 -22 17 -3 -37 -10 -70 -14 -75 -5 -4 -26 -10 -48 -13 l-39 -6 6 47 c5 46 5
47 -8 17 -8 -16 -14 -37 -15 -46 0 -20 -20 -39 -40 -39 -14 0 -13 12 6 108 12
59 31 136 44 172 18 52 21 79 17 135 -6 77 -40 169 -60 163 -18 -6 -25 -91
-15 -183 17 -156 17 -201 2 -279 -8 -44 -16 -81 -18 -83 -6 -6 -37 273 -40
362 -4 111 -36 198 -101 270 -35 40 -47 47 -57 37 -10 -10 -9 -24 4 -70 25
-89 53 -161 75 -190 11 -15 26 -45 33 -67 7 -22 17 -45 22 -51 9 -13 32 -147
44 -258 l7 -68 -54 7 c-30 4 -67 17 -84 30 -16 13 -63 39 -102 59 -40 20 -73
41 -73 46 0 5 -7 7 -15 4 -23 -9 -43 13 -50 57 -4 21 -11 39 -15 39 -5 0 -6
-16 -3 -35 3 -19 2 -35 -3 -35 -5 0 -62 21 -126 47 l-118 47 0 37 c0 21 -4 41
-10 44 -6 4 -10 -10 -10 -33 l0 -40 -121 46 -121 46 5 38 c3 21 1 38 -4 38 -5
0 -9 -10 -9 -22 0 -38 -14 -52 -38 -39 -11 6 -76 16 -144 21 -168 15 -257 32
-363 74 -235 90 -466 115 -635 66 -19 -5 -65 -10 -101 -10 l-67 0 11 35 c6 19
7 38 4 41 -8 8 -40 -13 -85 -55 -31 -29 -42 -32 -135 -41 -56 -6 -119 -13
-139 -16 -38 -6 -38 -5 -38 28 0 46 -26 130 -60 199 -29 57 -102 141 -132 152
-35 12 -19 -80 32 -190 11 -24 20 -47 20 -52 0 -5 16 -30 36 -56 19 -26 39
-57 44 -71 11 -28 32 -21 -295 -95 -126 -28 -240 -53 -253 -56 l-22 -5 2 383
3 384 28 3 c27 3 27 4 27 78 0 72 -1 74 -25 74 -20 0 -25 -5 -25 -25 0 -14 -4
-25 -10 -25 -6 0 -10 77 -10 210 0 122 4 210 9 210 5 0 -15 54 -45 121 -32 71
-54 136 -55 157 0 20 -4 46 -9 57 -6 14 -9 5 -9 -36 -1 -44 -11 -79 -47 -160
l-46 -104 -1 -220 c-1 -137 -6 -221 -12 -223 -5 -1 -11 7 -13 18 -3 15 -10 20
-25 18 -23 -3 -23 -4 -19 -105 2 -39 5 -43 27 -43 24 0 25 -2 25 -65 l0 -64
-62 -3 c-60 -3 -63 -4 -66 -30 -3 -27 -5 -28 -68 -28 l-64 0 0 30 c0 27 -3 30
-30 30 l-30 0 0 195 0 195 -54 0 c-54 0 -55 0 -58 -32 -3 -33 -3 -33 -60 -35
-58 -1 -58 -1 -58 28 0 17 -6 32 -15 35 -21 9 -23 491 -1 508 11 9 -2 47 -75
211 l-89 200 0 87 0 87 38 10 c70 18 132 24 132 12 0 -16 42 -13 149 9 52 11
121 21 155 21 34 1 52 3 41 6 -69 14 -71 17 -25 24 25 4 -37 6 -138 4 -165 -3
-182 -2 -180 13 3 15 -10 17 -88 20 l-91 3 -5 -153z m7279 -2400 c-3 -7 -5 -2
-5 12 0 14 2 19 5 13 2 -7 2 -19 0 -25z m830 -190 c-2 -13 -4 -3 -4 22 0 25 2
35 4 23 2 -13 2 -33 0 -45z"/>
<path d="M3520 5649 c0 -37 2 -40 23 -33 12 4 58 9 102 10 80 3 213 20 185 23
-11 2 -10 5 5 12 13 6 -18 8 -92 6 -86 -2 -113 1 -113 10 0 9 -17 13 -55 13
l-55 0 0 -41z"/>
<path d="M9895 4320 c-10 -16 4 -190 18 -215 21 -40 37 -159 32 -249 l-4 -91
10 85 c5 47 16 116 25 153 23 94 14 191 -23 265 -29 57 -46 72 -58 52z"/>
</g>
</svg>
