<?xml version="1.0" standalone="no"?>
<!DOCTYPE svg PUBLIC "-//W3C//DTD SVG 20010904//EN"
 "http://www.w3.org/TR/2001/REC-SVG-20010904/DTD/svg10.dtd">
<svg version="1.0" xmlns="http://www.w3.org/2000/svg"
 width="640.000000pt" height="1280.000000pt" viewBox="0 0 640.000000 1280.000000"
 preserveAspectRatio="xMidYMid meet">
<metadata>
Created by potrace 1.15, written by Peter Selinger 2001-2017
</metadata>
<g transform="translate(0.000000,1280.000000) scale(0.100000,-0.100000)"
fill="#000000" stroke="none">
<path d="M3195 12790 c-359 -32 -697 -93 -900 -163 -76 -26 -254 -104 -269
-118 -5 -4 -2 -58 8 -126 9 -65 29 -221 46 -348 17 -126 37 -275 46 -329 20
-132 64 -549 64 -606 -1 -44 -3 -46 -56 -80 -74 -47 -155 -136 -191 -207 -24
-49 -28 -70 -28 -138 0 -66 5 -90 27 -138 32 -67 118 -162 196 -213 l54 -37
-6 -331 c-4 -182 -11 -671 -16 -1086 -26 -1960 -30 -2258 -36 -2582 l-6 -346
-77 -32 c-98 -41 -315 -154 -422 -220 -526 -325 -938 -806 -1192 -1390 -330
-759 -363 -1534 -98 -2285 267 -755 769 -1335 1449 -1675 883 -440 1780 -451
2672 -33 963 452 1596 1335 1756 2448 22 150 25 541 6 695 -84 674 -389 1335
-833 1804 -230 243 -546 470 -853 611 l-108 50 7 305 c3 168 10 645 15 1060
19 1470 29 2200 36 2581 l7 387 62 41 c84 56 160 138 193 208 31 67 41 174 23
241 -24 89 -109 186 -242 278 l-45 31 8 99 c4 54 16 218 28 364 11 146 25 324
31 395 5 72 14 183 19 248 20 247 31 399 28 402 -2 1 -35 16 -74 33 -216 95
-424 152 -684 188 -128 18 -508 26 -645 14z m-991 -1847 c3 -42 6 -94 6 -116
0 -74 21 -118 85 -182 65 -65 143 -108 305 -168 240 -89 484 -127 817 -127
529 0 955 131 1055 324 16 32 19 50 13 105 -8 86 -9 200 -2 207 7 8 46 -22
111 -84 146 -140 130 -339 -37 -473 -28 -22 -55 -38 -61 -36 -6 2 -19 -6 -28
-18 -31 -40 -212 -119 -378 -165 -213 -59 -570 -87 -875 -69 -294 17 -533 61
-735 136 -127 47 -248 110 -267 140 -10 15 -19 20 -23 13 -10 -17 -122 92
-155 151 -27 48 -30 63 -30 139 0 71 4 93 25 133 22 45 139 167 159 167 4 0
11 -34 15 -77z m1696 -489 c-227 -55 -657 -61 -953 -13 -112 18 -70 20 64 3
180 -23 605 -23 763 -1 66 9 121 19 124 22 3 3 17 5 31 4 16 -1 5 -6 -29 -15z
m-1541 -253 c44 -21 93 -43 108 -49 l28 -9 -6 -444 -6 -444 -29 -60 c-26 -54
-29 -70 -28 -155 0 -71 7 -119 27 -191 l27 -97 -4 -513 c-2 -295 -1 -465 4
-399 4 63 8 118 9 123 0 4 10 7 21 7 11 0 20 5 20 10 0 6 9 10 20 10 13 0 22
9 26 26 5 19 12 24 25 21 12 -3 19 0 19 9 0 8 8 14 18 14 10 0 24 9 32 20 8
11 20 20 27 20 7 0 13 12 13 26 0 19 4 25 15 20 13 -4 13 -2 5 14 -20 37 -30
71 -20 65 6 -3 10 -10 10 -15 0 -5 33 -78 74 -162 124 -257 175 -417 176 -555
1 -131 -44 -229 -218 -482 -64 -91 -139 -213 -168 -271 -89 -176 -162 -429
-180 -629 l-7 -69 -72 -26 c-40 -14 -77 -26 -82 -26 -9 0 -8 574 7 2660 9
1328 14 1590 26 1590 1 0 39 -18 83 -39z m2032 -486 c-1 -259 -3 -544 -6 -635
-3 -91 -10 -754 -15 -1475 -6 -720 -13 -1388 -16 -1483 -6 -155 -8 -173 -23
-166 -143 60 -406 134 -600 168 -73 13 -134 25 -135 27 -8 8 -94 217 -131 313
-101 273 -80 413 99 634 129 161 176 239 176 290 0 52 47 174 123 322 92 177
137 301 144 395 5 72 -13 150 -35 150 -6 0 -14 4 -19 9 -5 5 -3 6 5 2 19 -11
14 8 -9 38 -11 14 -25 23 -31 20 -6 -4 -8 -3 -5 3 7 12 -51 69 -113 110 -25
16 -110 63 -190 103 -130 66 -153 82 -226 155 -57 57 -90 101 -115 150 -31 65
-34 77 -34 165 0 87 3 100 30 149 20 36 51 71 89 100 91 70 119 98 46 45 -51
-36 -66 -43 -68 -30 -2 9 -10 16 -17 16 -7 0 -16 14 -20 30 -5 21 -13 30 -26
30 -12 0 -19 7 -19 20 0 15 -7 20 -25 20 -21 0 -25 5 -25 29 0 21 -6 32 -19
36 -13 4 -21 17 -23 38 -3 29 -6 32 -40 35 -36 3 -38 5 -38 39 0 26 -5 36 -19
40 -10 3 -21 15 -23 28 -4 18 3 27 34 45 21 12 38 24 38 26 0 6 -206 -102
-227 -119 -7 -5 -13 -6 -14 -1 -3 22 3 449 6 452 2 2 61 -3 132 -12 371 -44
772 -24 1053 51 74 20 222 70 273 93 23 10 46 18 51 16 5 -1 8 -208 7 -471z
m-1514 -192 c-3 -10 -5 -2 -5 17 0 19 2 27 5 18 2 -10 2 -26 0 -35z m785
-1019 c102 -51 181 -101 174 -112 -2 -4 -7 -171 -10 -372 -7 -346 -8 -367 -29
-412 -13 -28 -28 -48 -38 -48 -14 0 -15 19 -13 160 3 152 2 160 -17 160 -17 0
-19 8 -21 83 -2 45 -1 118 0 162 l3 81 -40 -4 -41 -4 0 86 c0 51 -4 86 -10 86
-6 0 -10 32 -10 75 0 71 -1 76 -25 85 -14 5 -25 12 -25 15 0 9 6 6 102 -41z
m-964 -259 c-3 -3 -9 2 -12 12 -6 14 -5 15 5 6 7 -7 10 -15 7 -18z m1299 -87
c-3 -8 -6 -5 -6 6 -1 11 2 17 5 13 3 -3 4 -12 1 -19z m0 -60 c-3 -7 -5 -2 -5
12 0 14 2 19 5 13 2 -7 2 -19 0 -25z m-246 -599 c-5 -13 -10 -19 -10 -12 -1
15 10 45 15 40 3 -2 0 -15 -5 -28z m-433 -1326 c-21 -2 -57 -2 -80 0 -24 2 -7
4 37 4 44 0 63 -2 43 -4z m205 -10 c-7 -2 -19 -2 -25 0 -7 3 -2 5 12 5 14 0
19 -2 13 -5z m302 -85 c120 -24 295 -74 425 -120 l95 -34 3 -92 c1 -51 1 -92
-2 -92 -3 0 -25 14 -50 30 -102 69 -351 156 -531 184 -95 16 -92 13 -119 82
-14 35 -26 67 -26 70 0 9 84 -3 205 -28z m-1438 -143 c-2 -61 -3 -65 -31 -75
-39 -14 -44 -13 -49 8 -2 9 -3 7 -2 -6 2 -16 -6 -27 -25 -37 -15 -8 -30 -11
-34 -8 -6 6 -9 133 -3 133 1 0 34 11 72 25 39 13 71 24 72 24 2 1 2 -28 0 -64z
m1491 -51 c160 -41 321 -102 397 -152 63 -42 64 -46 19 -139 l-25 -51 -72 23
c-40 13 -155 46 -257 75 -180 50 -273 89 -284 116 -3 7 4 34 16 60 13 31 18
58 15 80 -6 33 -5 33 26 27 18 -3 92 -21 165 -39z m-1748 -72 c0 -78 -3 -91
-21 -108 -30 -26 -59 -92 -59 -134 0 -107 102 -199 321 -293 92 -40 236 -80
256 -73 6 3 16 -1 22 -8 16 -19 -26 -94 -72 -127 -71 -51 -99 -54 -359 -36
-14 1 -24 5 -22 9 3 4 -12 10 -33 14 -120 23 -289 127 -340 211 -12 21 -23 34
-23 30 0 -16 23 -52 52 -84 17 -17 24 -30 17 -30 -15 2 -19 -4 -19 -27 0 -9
13 -16 33 -19 17 -2 -6 -5 -53 -5 -204 -4 -331 -80 -510 -306 l-85 -107 -1
-72 c-1 -40 3 -77 8 -84 5 -7 8 -20 6 -30 -3 -10 3 -34 13 -53 9 -20 17 -52
16 -73 -1 -45 5 -52 79 -82 32 -14 52 -25 44 -25 -8 0 -33 9 -55 18 -22 10
-62 24 -90 32 -74 19 -233 84 -335 135 l-91 46 -28 -63 c-15 -35 -61 -138
-101 -229 l-73 -167 -50 -23 c-70 -33 -156 -89 -194 -128 -18 -18 -33 -29 -33
-24 0 5 18 65 41 134 156 475 404 886 733 1215 227 227 477 404 790 560 104
52 196 94 203 94 10 0 13 -22 13 -88z m2468 -6 c563 -286 989 -721 1272 -1301
401 -820 433 -1624 98 -2475 -143 -363 -335 -678 -577 -947 -89 -100 -249
-249 -334 -313 -23 -18 -10 -4 28 30 249 223 483 513 628 777 288 524 401
1154 317 1757 -11 77 -22 141 -25 144 -2 3 -12 -1 -20 -8 -14 -12 -14 -10 -5
16 20 52 15 148 -11 201 -27 57 -102 133 -184 188 -78 51 -273 139 -407 183
-107 34 -108 35 -127 78 -43 97 -155 179 -279 205 -67 14 -204 7 -246 -12 -26
-12 -30 -12 -40 5 -153 256 -323 421 -559 541 -59 30 -102 55 -95 55 7 -1 24
-7 38 -15 33 -19 46 -19 30 0 -11 13 -8 15 19 15 19 0 30 4 26 10 -4 6 7 10
25 10 18 0 29 4 25 10 -4 6 7 10 25 10 18 0 29 4 25 10 -3 5 6 12 20 16 13 3
23 10 20 14 -3 4 7 11 20 14 14 4 23 11 20 16 -3 6 1 10 11 10 28 0 94 22 89
30 -3 4 15 14 40 21 25 7 45 17 45 21 0 4 7 8 15 8 18 0 19 11 3 30 -50 56
331 -275 396 -343 123 -132 246 -314 353 -525 46 -90 83 -161 83 -158 0 2 -4
16 -9 29 -9 22 -6 25 28 36 21 6 46 11 55 11 9 0 16 4 16 9 0 13 100 53 116
47 8 -3 14 -4 14 -3 0 20 -218 400 -274 477 -6 9 -1 5 12 -8 20 -21 24 -22 38
-8 8 9 26 16 38 16 22 0 86 27 96 40 13 18 44 2 71 -37 33 -47 53 -60 23 -15
-145 224 -468 548 -684 684 -153 97 -220 138 -220 133 0 -2 18 -16 39 -30 29
-20 38 -31 34 -46 -4 -14 -8 -17 -13 -9 -5 8 -10 1 -15 -19 -4 -18 -9 -30 -13
-27 -3 3 -12 -3 -19 -14 -8 -11 -20 -18 -26 -14 -7 3 4 -7 23 -22 80 -66 80
-71 0 -14 -74 52 -216 130 -238 130 -5 0 -9 28 -10 63 0 34 -4 124 -7 200 -5
100 -3 137 5 137 6 0 77 -34 158 -74z m-2325 -45 c-6 -24 30 -136 70 -215 16
-33 54 -87 85 -120 l56 -61 -57 54 c-33 32 -71 82 -91 120 -42 81 -81 203 -73
225 9 22 16 20 10 -3z m-137 -282 c8 -17 36 -51 62 -76 l47 -46 -42 27 c-58
38 -95 95 -99 153 l-4 48 10 -38 c5 -21 17 -51 26 -68z m2649 -9 c3 -6 -1 -7
-9 -4 -18 7 -21 14 -7 14 6 0 13 -4 16 -10z m-2578 -22 c-3 -8 -6 -5 -6 6 -1
11 2 17 5 13 3 -3 4 -12 1 -19z m253 -94 c0 -2 -9 0 -20 6 -11 6 -20 13 -20
16 0 2 9 0 20 -6 11 -6 20 -13 20 -16z m-150 -24 c8 -5 11 -10 5 -10 -5 0 -17
5 -25 10 -8 5 -10 10 -5 10 6 0 17 -5 25 -10z m-10 -332 c10 -6 7 -7 -10 -2
-14 3 -32 11 -40 16 -10 6 -7 7 10 2 14 -3 32 -11 40 -16z m1700 -58 c8 -5 11
-10 5 -10 -5 0 -17 5 -25 10 -8 5 -10 10 -5 10 6 0 17 -5 25 -10z m-153 -26
c-3 -3 -12 -4 -19 -1 -8 3 -5 6 6 6 11 1 17 -2 13 -5z m-2350 -610 c-3 -3 -12
-4 -19 -1 -8 3 -5 6 6 6 11 1 17 -2 13 -5z m-50 -10 c-3 -3 -12 -4 -19 -1 -8
3 -5 6 6 6 11 1 17 -2 13 -5z m3158 -24 c-3 -5 -12 -10 -18 -10 -7 0 -6 4 3
10 19 12 23 12 15 0z m-4278 -694 c6 -12 7 -31 2 -50 -30 -114 -44 -281 -44
-556 0 -290 7 -378 46 -567 33 -164 31 -152 19 -123 -16 37 -67 270 -84 385
-45 303 -37 696 20 969 l6 30 12 -35 c7 -19 17 -43 23 -53z"/>
<path d="M3519 9393 c-13 -16 -12 -17 4 -4 9 7 17 15 17 17 0 8 -8 3 -21 -13z"/>
<path d="M3479 9363 c-13 -16 -12 -17 4 -4 9 7 17 15 17 17 0 8 -8 3 -21 -13z"/>
<path d="M1766 5360 c6 -8 16 -24 22 -35 6 -11 12 -15 12 -8 0 7 -10 22 -22
35 -13 13 -18 17 -12 8z"/>
<path d="M1191 4653 c-25 -36 -26 -41 -6 -18 26 30 49 65 42 65 -2 0 -18 -21
-36 -47z"/>
</g>
</svg>
